<svg width="68" height="69" xmlns="http://www.w3.org/2000/svg" xmlns:xlink="http://www.w3.org/1999/xlink" xml:space="preserve" overflow="hidden"><g transform="translate(-372 -11)"><path d="M100.845 51.9903C100.845 34.033 115.402 19.4757 133.359 19.4757 151.316 19.4757 165.874 34.033 165.874 51.9903 165.874 69.9476 151.316 84.5049 133.359 84.5049 115.402 84.5049 100.845 69.9476 100.845 51.9903Z" stroke="#00B050" stroke-width="2.97087" stroke-miterlimit="8" fill="#FFFFFF" fill-rule="evenodd" transform="matrix(1 0 0 1.01471 272.641 -7.25485)"/><path d="M154.625 48.5801 154.625 35.446 149.966 35.446C145.686 29.8748 139.016 26.5728 131.957 26.5728 125.903 26.5728 120.21 28.9236 115.929 33.1919 111.717 37.3911 109.367 42.9517 109.292 48.8785L108.107 51.9903 157.621 51.9903 154.625 48.5801ZM144.534 39.5932C141.552 35.7114 136.851 33.3938 131.957 33.3938 127.73 33.3938 123.756 35.035 120.767 38.0151 118.311 40.4638 116.761 43.5571 116.285 46.9609L113.157 46.5259C113.729 42.4384 115.588 38.7257 118.534 35.789 122.12 32.2142 126.887 30.2455 131.957 30.2455 137.827 30.2455 143.465 33.0242 147.041 37.6788L144.534 39.5932Z" fill="#0075C9" fill-rule="evenodd" transform="matrix(1 0 0 1.01471 272.641 -7.25485)"/><path d="M117.546 52.7819 122.896 52.7819 137.546 64.6895 138.547 52.7819 141.934 52.7819 140.693 67.5408 140.771 67.5138 144.207 77.4982 141.016 78.5964 137.797 69.2426Z" stroke="#042433" stroke-width="0.330097" stroke-miterlimit="8" fill-rule="evenodd" transform="matrix(1 0 0 1.01471 272.641 -7.25485)"/><path d="M139.231 78.1028C138.525 75.8923 141.321 77.3904 142.46 76.9448 143.367 76.5895 145.171 74.4045 145.686 75.9459 146.201 77.4873 145.174 79.2197 143.391 79.8153 141.609 80.4108 139.54 79.0408 139.231 78.1028Z" stroke="#FFFFFF" stroke-width="0.550161" stroke-miterlimit="8" fill-rule="evenodd" transform="matrix(1 0 0 1.01471 272.641 -7.25485)"/></g></svg>